<?xml version="1.0" standalone="no"?>
<!DOCTYPE svg PUBLIC "-//W3C//DTD SVG 20010904//EN"
 "http://www.w3.org/TR/2001/REC-SVG-20010904/DTD/svg10.dtd">
<svg version="1.0" xmlns="http://www.w3.org/2000/svg"
 width="1024.000000pt" height="1024.000000pt" viewBox="0 0 1024.000000 1024.000000"
 preserveAspectRatio="xMidYMid meet">

<g transform="translate(0.000000,1024.000000) scale(0.100000,-0.100000)"
fill="#ffff" stroke="none">
<path d="M6230 7669 c-153 -20 -320 -63 -320 -81 0 -4 -7 -8 -16 -8 -9 0 -45
-14 -80 -30 -49 -24 -62 -34 -58 -48 5 -13 4 -14 -4 -3 -8 11 -23 4 -78 -35
-64 -45 -214 -186 -260 -244 -28 -36 -114 -179 -114 -190 0 -6 -4 -10 -10 -10
-5 0 -10 -4 -10 -10 0 -22 19 -8 34 25 16 34 44 51 32 20 -3 -8 -1 -15 4 -15
6 0 10 16 10 35 0 28 5 37 24 45 13 5 30 17 36 27 10 16 11 16 7 -4 -3 -13 -2
-23 3 -23 12 0 80 78 80 92 0 9 -3 9 -12 0 -7 -7 -21 -12 -32 -11 -20 0 -20 1
2 9 14 6 25 22 29 42 l7 33 7 -30 c7 -30 7 -30 8 -3 1 16 8 28 19 31 13 4 11
5 -5 6 -13 0 -23 5 -23 10 0 5 9 7 20 4 28 -7 53 16 47 43 -2 14 2 25 10 28 8
3 11 1 8 -4 -3 -6 -1 -10 5 -10 6 0 9 8 6 18 -5 14 2 21 29 32 19 8 35 19 35
24 0 7 18 10 46 7 44 -3 46 -2 40 20 -3 13 -3 18 0 12 3 -7 23 -13 45 -13 37
0 39 2 39 30 0 28 3 30 36 30 27 0 37 5 41 19 6 24 80 75 85 59 2 -6 33 -10
80 -10 67 1 76 -1 81 -18 4 -15 12 -19 29 -16 12 3 30 5 38 6 10 1 9 4 -5 10
-16 7 -17 9 -3 9 9 1 18 5 20 10 3 10 100 15 231 13 84 -2 87 -3 87 -25 0 -22
3 -23 43 -17 46 7 67 4 67 -11 0 -4 -7 -6 -15 -3 -8 4 -15 1 -15 -6 0 -8 9
-10 24 -6 42 10 56 -2 56 -50 0 -42 -1 -44 -30 -44 -37 0 -38 -9 -5 -40 19
-18 22 -26 13 -33 -9 -6 -5 -7 11 -3 13 2 20 2 15 -2 -5 -4 -26 -23 -48 -42
-35 -32 -38 -33 -31 -11 4 15 3 21 -3 17 -5 -3 -12 3 -15 14 -7 26 -27 26 -34
0 -7 -27 -21 -25 -26 3 -2 12 -4 -7 -4 -42 0 -57 1 -62 13 -46 8 10 17 16 20
12 4 -4 2 -12 -4 -19 -5 -7 -16 -49 -22 -93 -7 -44 -14 -86 -16 -93 -8 -28
-23 1 -35 68 -7 39 -17 70 -22 70 -5 0 -7 -9 -4 -20 3 -11 1 -20 -4 -20 -5 0
-9 4 -9 9 0 5 -8 11 -17 15 -10 3 -23 8 -28 11 -6 3 -19 -15 -29 -39 -10 -25
-28 -48 -42 -55 -25 -11 -32 -35 -14 -46 6 -4 8 -11 5 -16 -4 -5 2 -6 12 -2
13 5 11 -1 -9 -26 -16 -18 -28 -37 -28 -41 0 -5 -7 -7 -15 -4 -9 4 -15 19 -15
40 0 19 -4 34 -10 34 -5 0 -10 -17 -10 -39 0 -22 -6 -44 -15 -51 -8 -7 -15
-18 -15 -25 0 -6 -11 -24 -24 -40 -17 -19 -25 -23 -28 -14 -3 8 -9 11 -13 7
-4 -4 -2 -14 5 -23 11 -13 10 -14 -3 -10 -8 4 -17 15 -20 26 -3 13 -11 17 -21
13 -22 -8 -21 -46 1 -42 12 2 20 -9 29 -42 l12 -45 12 33 c18 49 20 35 4 -28
-8 -30 -14 -82 -14 -115 0 -71 -14 -103 -24 -55 -3 18 -6 49 -6 69 0 41 -13
67 -29 57 -6 -4 -19 -27 -30 -51 -19 -43 -38 -64 -24 -27 6 15 5 15 -10 4 -9
-8 -22 -10 -28 -6 -9 5 -10 2 -6 -9 8 -22 -9 -22 -23 1 -9 14 -10 13 -4 -8 17
-59 12 -106 -18 -175 -17 -38 -39 -92 -49 -120 l-19 -50 3 47 c1 25 0 45 -3
44 -3 -1 -18 -8 -33 -16 -25 -12 -30 -12 -37 0 -7 11 -10 5 -9 -20 0 -19 3
-29 6 -22 7 17 33 15 33 -3 0 -14 -12 -19 -32 -16 -17 2 -7 -25 13 -38 16 -9
18 -15 10 -21 -17 -10 -18 -217 -2 -233 9 -9 11 -8 6 6 -4 10 -2 17 4 17 6 0
11 10 12 23 0 14 2 16 6 7 3 -8 13 -34 24 -57 25 -56 25 -56 -13 -33 -18 11
-36 20 -40 20 -20 0 -2 -102 33 -185 14 -36 12 -64 -7 -86 -22 -24 -17 -32 17
-25 18 3 38 1 45 -5 16 -13 19 -43 4 -34 -5 3 -10 -1 -10 -9 0 -9 8 -16 18
-16 21 0 42 -18 42 -37 0 -7 -10 -12 -22 -10 -18 1 -23 -4 -28 -28 -4 -21 -11
-29 -23 -27 -13 2 -17 -4 -17 -25 0 -15 5 -35 10 -43 8 -12 10 -12 10 -1 0 8
3 12 6 8 7 -7 -23 -92 -43 -122 -12 -19 -13 -19 -13 5 0 20 -2 22 -10 10 -6
-10 -10 -11 -10 -2 0 6 -3 12 -7 12 -5 0 -9 -28 -9 -63 -2 -98 -3 -109 -13
-103 -5 3 -15 -1 -22 -10 -8 -10 -9 -18 -2 -22 6 -4 7 -15 2 -27 l-8 -20 -1
20 c-1 15 -3 16 -7 5 -9 -21 -30 -40 -37 -33 -3 4 -6 -1 -6 -11 0 -14 -9 -16
-55 -15 -53 2 -55 3 -39 21 16 17 16 18 -4 18 -19 0 -22 6 -22 40 0 33 -3 40
-20 40 -15 0 -20 7 -20 24 0 16 -7 27 -20 31 -11 3 -20 13 -20 21 0 8 -9 14
-21 14 -11 0 -18 -4 -15 -9 3 -4 -6 -6 -19 -3 -22 4 -25 10 -25 44 0 37 -2 40
-25 36 -13 -3 -22 -2 -20 3 9 13 -16 22 -28 10 -18 -18 -27 -12 -18 12 5 14 5
30 0 40 -7 11 -6 17 0 17 5 0 11 -5 13 -12 3 -7 12 -9 23 -4 16 6 17 9 5 16
-10 7 -11 10 -2 10 25 0 12 36 -19 47 -17 7 -28 17 -24 23 3 5 -1 17 -9 26
-15 14 -16 13 -18 -13 0 -15 -1 -34 -1 -40 1 -7 -3 -10 -8 -7 -5 3 -9 13 -9
22 -1 15 -2 15 -11 -2 -10 -17 -12 -16 -30 10 -10 16 -19 37 -19 47 0 10 -4
15 -10 12 -6 -3 -7 1 -4 9 3 9 17 16 30 16 21 0 24 5 24 39 0 32 -4 39 -23 43
-30 6 -47 0 -47 -17 0 -8 -4 -16 -9 -19 -5 -4 -7 3 -4 14 4 16 2 19 -13 14
-13 -4 -15 -3 -6 3 9 7 10 17 4 34 -13 32 -24 198 -24 336 0 62 -4 113 -9 113
-5 0 -9 -23 -9 -51 0 -45 -2 -49 -15 -35 -12 11 -15 41 -16 130 0 65 -4 116
-10 116 -14 0 -11 64 7 105 9 21 13 50 10 69 -5 25 -4 27 4 11 7 -15 9 -7 5
30 -3 28 -1 64 4 80 6 22 9 3 9 -75 0 -135 0 -140 12 -140 5 0 8 23 6 53 -2
28 -1 46 1 40 3 -7 12 -13 21 -13 24 0 28 68 6 85 -12 9 -15 23 -12 57 3 28 0
55 -8 69 -15 28 -20 63 -5 40 15 -23 26 8 27 76 1 66 -7 73 -25 23 -8 -24 -7
-29 2 -23 9 5 9 3 0 -8 -24 -29 -78 -287 -68 -320 4 -11 1 -27 -6 -35 -17 -20
-24 -271 -10 -359 6 -38 11 -89 11 -112 -1 -25 4 -43 10 -43 6 0 8 -4 5 -10
-20 -33 112 -419 138 -403 6 4 8 0 4 -10 -3 -9 -2 -19 3 -22 6 -4 10 -13 10
-21 0 -9 11 -30 25 -48 14 -18 25 -38 25 -44 0 -6 6 -15 13 -19 8 -4 22 -21
33 -38 30 -48 192 -207 203 -200 6 3 9 0 6 -7 -3 -8 9 -21 30 -32 19 -11 35
-23 35 -27 0 -8 18 -19 165 -93 86 -44 167 -75 313 -118 19 -6 50 -11 70 -13
21 -1 45 -6 55 -10 21 -9 55 -1 82 19 18 13 12 14 -65 12 -47 -2 -65 -1 -40 1
32 3 40 7 30 14 -10 6 -6 7 15 3 17 -3 41 -1 55 5 22 9 20 10 -13 5 -29 -5
-37 -3 -35 7 2 10 -7 13 -29 12 -23 -1 -33 3 -33 13 0 8 -10 14 -22 14 -13 1
-49 3 -80 7 l-58 5 0 -32 c0 -27 -2 -30 -14 -21 -8 7 -25 14 -37 16 -53 10
-109 28 -109 36 0 5 6 6 13 4 6 -3 26 -1 42 4 17 5 23 10 15 10 -13 1 -13 2 0
11 24 15 8 19 -40 10 -26 -5 -49 -5 -55 1 -5 5 -23 9 -41 9 -17 0 -37 7 -44
15 -7 8 -11 15 -9 15 2 1 29 3 59 5 81 7 147 21 130 28 -8 3 -22 8 -30 11 -8
3 10 3 40 0 40 -4 51 -3 40 5 -13 10 -13 11 0 11 8 0 22 -5 30 -10 12 -8 12
-10 1 -10 -8 0 -12 -3 -9 -6 4 -3 16 0 28 6 12 6 43 14 68 16 26 2 62 7 80 10
23 3 32 2 27 -5 -9 -15 8 -14 23 1 9 9 12 9 12 -3 0 -16 -19 -39 -33 -39 -4 0
-5 6 -1 13 5 8 4 9 -4 2 -17 -16 -24 -68 -12 -85 9 -11 13 -12 17 -2 6 15 30
16 35 2 2 -7 11 -5 23 4 18 13 16 15 -28 21 -45 7 -60 19 -35 27 7 3 19 -1 26
-9 7 -7 24 -13 37 -13 12 0 25 -6 28 -14 5 -12 29 -14 134 -11 72 3 115 1 98
-4 -24 -6 -16 -8 45 -13 54 -4 78 -2 85 7 6 7 22 15 35 17 14 3 -6 5 -45 5
-47 0 -59 -2 -35 -6 19 -3 31 -9 25 -12 -5 -3 -26 -2 -45 3 -49 14 -23 24 80
31 47 4 108 9 135 11 36 4 43 3 25 -3 -22 -8 -21 -9 15 -10 22 -1 65 -8 95
-16 30 -8 74 -15 98 -15 23 0 42 -4 42 -10 0 -6 33 -8 80 -6 67 3 78 1 62 -9
-31 -22 -109 -29 -135 -13 -27 19 -67 7 -74 -22 -5 -19 -14 -20 -139 -20 -127
0 -134 1 -134 20 0 16 -7 20 -36 20 -34 0 -70 -21 -57 -34 4 -3 22 -7 42 -7
36 -1 36 -1 6 -8 -24 -5 -26 -8 -13 -13 10 -4 31 -2 48 4 17 5 34 8 37 4 4 -3
-2 -6 -13 -7 -18 0 -18 -1 1 -9 15 -6 4 -9 -40 -10 -49 -2 -55 -4 -30 -10 17
-4 23 -9 15 -10 -142 -19 -268 -16 -285 6 -13 19 -56 16 -110 -7 -28 -12 -24
-13 65 -21 102 -10 363 -1 355 12 -2 4 15 5 39 3 45 -6 88 8 67 21 -6 4 -11 2
-11 -3 0 -6 -8 -11 -17 -11 -16 1 -15 2 2 12 19 12 19 12 -5 20 -21 6 -19 7 8
3 17 -2 32 -1 32 4 0 5 16 5 38 0 21 -4 54 -4 77 1 56 13 67 10 20 -5 -23 -8
-31 -14 -20 -14 23 -1 159 34 190 49 11 5 54 23 95 39 101 39 200 91 201 105
0 6 0 173 0 371 -2 416 0 410 -75 357 -24 -18 -49 -32 -55 -32 -5 0 -13 -4
-16 -10 -4 -7 3 -7 20 0 34 13 34 13 32 -8 -1 -13 -10 -18 -34 -19 -18 -1 -33
3 -33 8 0 8 -106 -34 -119 -47 -2 -2 0 -9 6 -15 13 -13 53 -3 53 13 0 6 -6 6
-15 -2 -9 -7 -18 -10 -22 -6 -11 10 5 19 40 22 17 1 60 7 95 11 l62 9 0 -321
0 -322 -22 -11 -23 -11 23 0 c33 -1 27 -21 -7 -21 -20 0 -30 -6 -34 -20 -5
-18 -14 -20 -97 -20 -51 0 -89 4 -86 9 7 11 -18 21 -54 21 -16 0 -32 4 -35 10
-3 5 2 9 12 8 10 0 29 0 43 1 22 3 19 5 -15 16 l-40 13 67 1 c37 1 70 -3 73
-9 11 -18 34 -11 32 10 -1 14 -6 18 -18 15 -10 -3 -20 -2 -23 4 -3 5 6 12 22
17 l27 7 -35 6 c-19 4 -76 4 -126 1 -74 -4 -90 -2 -86 8 2 8 13 11 23 9 11 -3
17 -1 13 4 -3 5 -12 9 -20 9 -8 0 -14 9 -14 20 0 17 -7 20 -40 20 -22 0 -40
-4 -40 -9 0 -6 -17 -11 -37 -13 -39 -3 -56 -23 -26 -31 16 -4 16 -5 -1 -6 -20
-1 -20 -1 0 -16 17 -13 17 -14 2 -15 -26 0 -22 -20 5 -21 48 -3 -107 -19 -273
-28 -135 -7 -189 -6 -235 4 -54 12 -41 12 135 8 107 -3 191 -2 187 3 -4 4 -56
7 -115 7 -59 -1 -123 2 -142 7 -27 7 -15 9 55 6 50 -1 81 -1 70 2 -34 7 -36
18 -4 20 44 3 99 29 99 45 0 30 -28 38 -147 40 -65 1 -127 -3 -138 -8 -18 -8
-19 -7 -6 9 14 16 8 17 -108 12 -67 -2 -127 -9 -134 -14 -23 -18 -87 -34 -100
-24 -19 15 -56 21 -63 10 -4 -6 -1 -14 6 -18 8 -5 0 -12 -24 -20 -21 -7 -40
-9 -44 -6 -3 4 4 9 16 13 12 3 19 10 16 15 -4 6 -1 14 6 18 9 6 12 30 11 77
-1 40 4 84 13 108 12 33 15 36 16 15 1 -22 2 -23 13 -8 8 10 22 14 38 11 19
-4 25 0 26 16 1 11 -2 23 -8 26 -5 4 -9 -3 -9 -14 0 -12 -5 -21 -10 -21 -13 0
-2 50 16 71 8 8 14 20 14 25 0 5 -5 2 -10 -6 -8 -12 -10 -10 -10 10 0 14 7 35
15 47 10 14 12 24 5 28 -15 9 -12 25 5 25 8 0 15 -4 15 -10 0 -5 9 -10 20 -10
26 0 25 18 -1 46 -20 21 -20 23 -2 32 10 5 54 12 98 15 44 3 94 7 110 10 17 2
23 2 15 0 -8 -3 -24 -12 -35 -20 -19 -15 -19 -15 5 -8 53 15 83 18 76 7 -7
-12 39 -25 64 -17 11 3 22 0 27 -8 4 -7 17 -17 28 -21 19 -7 19 -8 -5 -21 -14
-8 -20 -15 -15 -15 48 -6 71 -14 78 -26 5 -8 23 -14 42 -14 19 0 35 -4 35 -10
0 -16 84 -11 109 6 19 14 47 17 157 15 80 -1 134 2 134 7 0 19 -36 24 -163 27
-70 1 -129 4 -132 7 -7 7 276 1 305 -7 20 -5 31 0 53 24 15 17 34 31 42 31 8
0 15 5 15 11 0 5 5 7 10 4 6 -3 20 -3 32 1 18 5 19 8 5 15 -14 8 -115 -13
-187 -39 -8 -3 -26 -7 -39 -8 -13 -2 -46 -8 -73 -14 -59 -12 -194 -5 -298 17
-76 16 -192 62 -204 81 -4 7 23 25 68 46 42 19 101 54 131 78 l55 43 -112 5
c-118 5 -117 7 7 36 118 28 161 50 193 103 94 150 260 477 248 488 -3 4 -16 1
-29 -5 -12 -6 -40 -16 -62 -21 -42 -11 -195 -30 -195 -24 0 1 42 24 93 49 50
26 118 64 149 85 31 22 59 39 61 39 2 0 2 -25 -1 -55 l-4 -55 168 1 c93 0 194
4 224 8 30 5 56 4 58 0 2 -5 26 -9 54 -9 l51 0 -7 61 c-3 34 -6 289 -6 565 l0
504 -72 0 c-68 0 -74 -2 -85 -25 -13 -29 -6 -33 14 -7 13 16 14 15 8 -5 -3
-12 -1 -24 5 -28 6 -3 10 3 10 15 0 19 2 20 15 7 8 -9 28 -18 45 -22 16 -4 31
-12 31 -18 1 -7 5 4 9 23 4 19 7 -197 6 -480 -1 -469 -1 -479 -3 -112 l-3 402
-23 0 c-12 0 -28 9 -35 20 -7 11 -17 20 -22 20 -6 0 -10 -9 -10 -20 0 -17 -6
-20 -37 -19 -21 1 -30 3 -20 6 28 7 21 36 -8 31 -21 -5 -25 -1 -31 28 -6 32
-24 48 -24 22 0 -6 -2 -9 -5 -7 -7 8 32 109 49 128 15 17 48 102 42 109 -2 2
-46 -9 -97 -23 -52 -15 -114 -31 -138 -36 -25 -5 -47 -13 -50 -17 -9 -13 -71
-35 -78 -29 -3 4 -14 -4 -24 -18 -11 -13 -49 -40 -85 -60 l-65 -37 -42 35
c-103 83 -270 167 -304 152 -15 -7 -13 -9 12 -15 20 -5 3 -8 -55 -9 -59 0 -80
2 -70 9 11 7 5 8 -20 4 -31 -5 -33 -4 -18 8 15 13 15 15 -3 26 -21 13 -44 14
-139 1z m-10 -29 c-11 -7 -4 -11 28 -16 23 -4 41 -9 38 -11 -3 -3 -23 -2 -45
2 -43 7 -66 35 -28 35 17 0 19 -2 7 -10z m53 3 c-7 -2 -19 -2 -25 0 -7 3 -2 5
12 5 14 0 19 -2 13 -5z m-116 -9 c-3 -3 -12 -4 -19 -1 -8 3 -5 6 6 6 11 1 17
-2 13 -5z m-252 -74 c3 -6 -4 -10 -17 -10 -18 0 -20 -2 -8 -10 8 -5 10 -10 4
-10 -18 0 -24 13 -13 27 14 16 26 17 34 3z m825 -15 c19 -14 30 -25 24 -25
-11 0 -74 38 -74 45 0 11 18 4 50 -20z m85 -65 c3 -5 1 -10 -4 -10 -6 0 -11 5
-11 10 0 6 2 10 4 10 3 0 8 -4 11 -10z m-1 -39 c3 -5 -1 -11 -9 -14 -9 -4 -12
-1 -8 9 6 16 10 17 17 5z m-56 -48 c-6 -7 -15 -13 -21 -13 -8 0 -8 3 0 11 6 6
9 19 5 27 -5 14 -4 15 10 2 11 -11 13 -19 6 -27z m586 -15 c9 -12 16 -39 16
-60 0 -38 0 -38 40 -38 l40 0 0 -80 c0 -47 4 -80 10 -80 6 0 10 -18 10 -40 0
-38 2 -40 30 -40 l30 0 0 -240 0 -240 -40 0 c-22 0 -40 -5 -40 -10 0 -6 16 -8
43 -4 27 4 38 3 32 -3 -14 -14 -87 -33 -124 -33 -17 0 -31 -4 -31 -10 0 -5
-18 -10 -40 -10 -30 0 -40 4 -40 16 0 13 -9 15 -48 12 -37 -2 -53 2 -75 19
-16 12 -35 19 -44 16 -13 -5 -13 -3 -4 15 14 27 14 43 -1 40 -18 -4 -22 88 -6
142 7 25 13 48 13 52 0 12 15 22 15 10 0 -20 17 -13 23 8 3 11 10 20 17 20 7
0 9 -8 5 -20 -7 -21 10 -28 18 -7 3 6 6 -12 6 -40 l1 -53 34 0 c34 0 35 -1 38
-42 3 -43 3 -43 46 -46 28 -2 42 -8 42 -18 0 -10 12 -14 40 -14 l40 0 0 60 0
60 -40 0 -40 0 0 80 0 80 -50 0 -50 0 0 40 c0 22 -4 40 -10 40 -5 0 -10 18
-10 40 0 36 -2 40 -26 40 -19 0 -24 4 -20 18 9 34 18 107 12 101 -4 -3 -11
-26 -16 -50 -9 -43 -9 -43 -4 10 5 50 37 141 50 141 3 0 3 -15 -1 -32 -5 -27
-4 -30 5 -15 6 10 9 30 5 45 -3 16 1 43 9 63 15 33 15 34 16 7 0 -28 21 -37
46 -20 15 10 37 52 27 52 -5 0 -14 9 -21 20 -17 27 3 25 22 -2z m-67 -10 c-3
-8 -6 -5 -6 6 -1 11 2 17 5 13 3 -3 4 -12 1 -19z m-1711 -37 c-4 -6 -16 -11
-27 -11 -18 0 -18 1 -1 19 17 18 40 12 28 -8z m-90 -99 c-11 -10 -15 4 -8 28
l7 25 3 -23 c2 -13 1 -26 -2 -30z m989 -72 c3 -5 -1 -10 -10 -10 -9 0 -13 5
-10 10 3 6 8 10 10 10 2 0 7 -4 10 -10z m718 -115 c4 -8 2 -17 -3 -20 -6 -4
-10 3 -10 14 0 25 6 27 13 6z m17 -62 c0 -23 -4 -33 -9 -27 -9 8 -4 64 5 64 2
0 4 -17 4 -37z m-483 -94 c-59 -87 -237 -374 -237 -383 0 -2 -31 -60 -70 -129
-38 -69 -98 -185 -133 -256 -68 -137 -99 -185 -112 -173 -5 4 -5 1 -1 -6 8
-13 -19 -77 -94 -227 -34 -67 -70 -98 -70 -60 0 12 5 15 16 11 12 -5 15 -2 10
10 -4 9 0 26 7 38 8 12 22 44 32 73 10 29 22 50 26 48 4 -3 9 5 12 16 4 14 10
18 18 13 9 -5 10 -2 6 9 -3 9 0 23 8 31 8 7 12 16 9 19 -19 19 206 440 374
697 108 166 253 372 259 367 2 -3 -25 -46 -60 -98z m-424 41 c-10 -18 -20 -25
-22 -18 -2 6 1 14 8 16 6 2 11 10 11 18 0 8 5 14 11 14 5 0 2 -14 -8 -30z
m900 -50 c3 -11 1 -23 -4 -26 -5 -3 -9 6 -9 20 0 31 6 34 13 6z m-940 -5 c-3
-9 -8 -14 -10 -11 -3 3 -2 9 2 15 9 16 15 13 8 -4z m887 -29 c0 -3 -4 -8 -10
-11 -5 -3 -10 -1 -10 4 0 6 5 11 10 11 6 0 10 -2 10 -4z m-1227 -611 c-3 -9
-8 -14 -10 -11 -3 3 -2 9 2 15 9 16 15 13 8 -4z m-33 -165 l-11 -25 6 25 c2
14 6 41 7 60 l1 35 4 -35 c2 -20 -1 -47 -7 -60z m-708 -130 c3 -58 1 -91 -3
-75 -11 45 -18 199 -9 189 4 -5 10 -56 12 -114z m15 -42 c-3 -8 -6 -5 -6 6 -1
11 2 17 5 13 3 -3 4 -12 1 -19z m2305 -525 c2 -182 1 -330 -1 -328 -1 2 -7 75
-11 162 l-8 158 3 -162 c2 -93 -1 -163 -6 -163 -5 0 -9 10 -10 23 -7 258 -8
624 -2 636 4 10 9 -5 13 -44 l7 -60 3 85 c5 141 9 43 12 -307z m-1557 347 c3
-5 1 -10 -4 -10 -6 0 -11 5 -11 10 0 6 2 10 4 10 3 0 8 -4 11 -10z m514 -106
c2 -2 -5 -4 -16 -4 -12 0 -23 7 -27 15 -5 13 -2 14 17 4 12 -6 24 -13 26 -15z
m146 -44 c13 -6 15 -9 5 -9 -8 0 -22 4 -30 9 -18 12 -2 12 25 0z m-605 -29
c-5 -11 -15 -32 -20 -47 -6 -15 -13 -24 -16 -22 -2 3 0 16 5 29 5 13 12 32 15
42 3 9 10 17 16 17 7 0 8 -6 0 -19z m673 12 c-7 -2 -21 -2 -30 0 -10 3 -4 5
12 5 17 0 24 -2 18 -5z m54 -9 c-3 -3 -12 -4 -19 -1 -8 3 -5 6 6 6 11 1 17 -2
13 -5z m-1289 -229 c-3 -3 -9 2 -12 12 -6 14 -5 15 5 6 7 -7 10 -15 7 -18z
m522 -145 c0 -5 -2 -10 -4 -10 -3 0 -8 5 -11 10 -3 6 -1 10 4 10 6 0 11 -4 11
-10z m-359 -22 c11 -21 11 -22 -4 -9 -10 7 -17 17 -17 22 0 15 9 10 21 -13z
m519 -38 c-98 -21 -115 -23 -80 -8 31 13 95 25 135 26 17 0 -8 -8 -55 -18z
m460 12 c0 -4 -17 -6 -37 -4 -59 5 -63 10 -10 11 26 1 47 -3 47 -7z m347 2
c-3 -3 -12 -4 -19 -1 -8 3 -5 6 6 6 11 1 17 -2 13 -5z m-467 -19 c11 -13 7
-15 -26 -15 -22 0 -54 -4 -72 -9 -25 -8 -32 -7 -29 2 2 7 21 14 43 16 l39 5
-40 6 c-38 7 -38 7 16 9 39 1 60 -4 69 -14z m-471 -27 c-13 -5 -37 -10 -52
-10 -15 -1 -30 -5 -33 -10 -3 -4 -11 -8 -17 -8 -7 0 -1 9 12 19 14 11 40 18
69 18 38 0 41 -2 21 -9z m1228 -10 c-15 -9 -76 -9 -100 0 -9 4 12 7 47 7 35 0
59 -3 53 -7z m-234 -55 c-7 -2 -19 -2 -25 0 -7 3 -2 5 12 5 14 0 19 -2 13 -5z
m130 -40 c-13 -2 -33 -2 -45 0 -13 2 -3 4 22 4 25 0 35 -2 23 -4z m-786 -149
c-3 -3 -12 -4 -19 -1 -8 3 -5 6 6 6 11 1 17 -2 13 -5z"/>
<path d="M7353 7165 c0 -22 2 -30 4 -17 2 12 2 30 0 40 -3 9 -5 -1 -4 -23z"/>
<path d="M7175 6570 c-19 -8 -19 -9 3 -9 12 -1 22 4 22 9 0 6 -1 10 -2 9 -2 0
-12 -4 -23 -9z"/>
<path d="M7473 5480 c0 -25 2 -35 4 -22 2 12 2 32 0 45 -2 12 -4 2 -4 -23z"/>
<path d="M6410 7660 c17 -11 57 -14 47 -3 -4 3 -19 8 -34 9 -21 2 -24 1 -13
-6z"/>
<path d="M2610 7325 l0 -305 129 0 c76 0 132 4 136 10 6 11 -10 13 -111 14
-81 2 -114 36 -114 121 0 18 -5 35 -11 37 -8 3 -9 55 -4 180 7 156 10 180 27
198 17 18 27 20 62 14 22 -4 247 -7 499 -7 251 1 457 -2 457 -7 0 -4 53 -10
117 -13 66 -4 119 -11 121 -17 2 -5 23 -10 47 -10 39 0 43 3 48 27 3 16 0 31
-6 36 -8 5 -4 7 8 5 11 -1 22 2 25 7 3 7 -246 11 -712 13 l-718 2 0 -305z m27
-197 c-3 -8 -6 -5 -6 6 -1 11 2 17 5 13 3 -3 4 -12 1 -19z"/>
<path d="M6475 7550 c-3 -5 3 -10 15 -10 12 0 18 5 15 10 -3 6 -10 10 -15 10
-5 0 -12 -4 -15 -10z"/>
<path d="M6560 7530 c0 -5 7 -10 16 -10 8 0 12 5 9 10 -3 6 -10 10 -16 10 -5
0 -9 -4 -9 -10z"/>
<path d="M6433 7523 c9 -2 23 -2 30 0 6 3 -1 5 -18 5 -16 0 -22 -2 -12 -5z"/>
<path d="M3913 7475 c0 -22 2 -30 4 -17 2 12 2 30 0 40 -3 9 -5 -1 -4 -23z"/>
<path d="M6000 7470 c0 -5 18 -10 40 -10 22 0 40 5 40 10 0 6 -18 10 -40 10
-22 0 -40 -4 -40 -10z"/>
<path d="M4044 7320 c0 -69 1 -97 3 -62 2 34 2 90 0 125 -2 34 -3 6 -3 -63z"/>
<path d="M7350 7430 c0 -5 5 -10 11 -10 5 0 7 5 4 10 -3 6 -8 10 -11 10 -2 0
-4 -4 -4 -10z"/>
<path d="M5630 7380 c0 -5 4 -10 9 -10 6 0 13 5 16 10 3 6 -1 10 -9 10 -9 0
-16 -4 -16 -10z"/>
<path d="M4003 7320 c0 -25 2 -35 4 -22 2 12 2 32 0 45 -2 12 -4 2 -4 -23z"/>
<path d="M5582 7300 c-8 -13 -8 -20 -2 -20 6 0 13 7 17 15 9 24 -1 27 -15 5z"/>
<path d="M6360 7177 c19 -20 40 -16 40 8 0 9 -11 13 -29 13 -28 -1 -29 -1 -11
-21z"/>
<path d="M3920 7158 c0 -38 0 -38 -40 -38 -33 0 -40 -3 -40 -20 0 -16 7 -20
34 -20 45 0 66 -9 66 -27 0 -12 -15 -14 -87 -11 -70 2 -87 0 -90 -12 -4 -13
-3 -13 7 0 9 11 13 12 17 3 3 -10 39 -13 128 -13 136 0 136 0 133 68 l-1 37
-6 -43 -6 -43 -20 38 c-11 21 -37 56 -57 78 l-38 40 0 -37z"/>
<path d="M2891 6257 c0 -433 -3 -792 -6 -797 -4 -6 -21 -9 -38 -9 l-32 2 35 7
c22 5 -15 8 -103 9 l-137 1 2 -307 3 -308 1105 0 1105 0 3 613 2 612 -218 0
-218 0 -26 -102 c-14 -57 -29 -112 -32 -123 -6 -19 10 12 33 65 7 15 9 17 6 5
-2 -11 -1 -36 4 -55 l7 -35 8 35 c10 48 13 139 4 133 -5 -2 -8 0 -8 6 0 15 37
23 109 23 l66 1 -60 8 c-100 15 -87 17 85 18 110 0 160 -3 150 -9 -8 -5 -13
-10 -10 -11 3 0 18 -3 35 -5 16 -3 32 -8 35 -11 3 -2 4 -136 3 -296 -1 -161
-2 -408 -2 -549 l-1 -258 -37 -16 c-35 -16 -131 -17 -1064 -19 l-1026 -3 -14
22 c-11 16 -14 65 -16 206 -1 102 1 218 4 258 l5 72 69 0 68 0 4 -42 4 -43 1
44 2 43 44 -3 c29 -3 48 1 57 11 12 12 14 137 13 740 -1 400 -4 744 -8 766 -7
36 -6 38 8 19 14 -19 15 -17 9 20 -7 48 -13 57 -14 24 l-1 -24 -8 25 c-5 14
-8 -330 -9 -763z m16 481 c-2 -13 -4 -3 -4 22 0 25 2 35 4 23 2 -13 2 -33 0
-45z m0 -160 c-2 -13 -4 -3 -4 22 0 25 2 35 4 23 2 -13 2 -33 0 -45z m-217
-1122 c0 -2 -13 -6 -29 -8 -17 -2 -28 -1 -25 4 5 8 54 12 54 4z"/>
<path d="M2931 6293 c-1 -412 -4 -764 -6 -783 -4 -31 -3 -32 5 -10 8 21 9 19
7 -17 -3 -43 6 -56 17 -28 3 8 2 22 -1 32 -4 9 -2 14 3 11 5 -4 8 280 6 720
-2 825 -2 822 -17 822 -8 0 -12 -208 -14 -747z m16 525 c-2 -13 -4 -3 -4 22 0
25 2 35 4 23 2 -13 2 -33 0 -45z m0 -320 c-2 -13 -4 -3 -4 22 0 25 2 35 4 23
2 -13 2 -33 0 -45z m0 -240 c-2 -13 -4 -3 -4 22 0 25 2 35 4 23 2 -13 2 -33 0
-45z m0 -615 c-2 -21 -4 -4 -4 37 0 41 2 58 4 38 2 -21 2 -55 0 -75z m0 -90
c-3 -10 -5 -2 -5 17 0 19 2 27 5 18 2 -10 2 -26 0 -35z"/>
<path d="M3708 7003 c-20 -3 -28 -10 -28 -24 0 -10 3 -18 8 -18 4 1 17 1 30 0
l22 -1 1 -712 c1 -659 5 -789 23 -748 3 8 5 350 4 760 -3 815 2 753 -60 743z"/>
<path d="M5351 6994 c0 -11 3 -14 6 -6 3 7 2 16 -1 19 -3 4 -6 -2 -5 -13z"/>
<path d="M5252 6943 c-12 -29 -19 -65 -17 -91 2 -42 15 -73 15 -37 0 18 1 18
13 1 11 -14 13 -4 12 68 0 63 3 86 12 86 7 0 13 5 13 10 0 6 -6 10 -14 10 -7
0 -23 -21 -34 -47z"/>
<path d="M3687 6918 c-4 -12 -2 -27 3 -32 12 -12 19 -5 22 24 4 30 -18 37 -25
8z"/>
<path d="M3015 6909 c-4 -6 -4 -13 -1 -16 3 -4 6 0 7 8 0 8 4 6 9 -6 8 -19 9
-19 9 3 1 23 -13 30 -24 11z"/>
<path d="M5981 6704 c0 -11 3 -14 6 -6 3 7 2 16 -1 19 -3 4 -6 -2 -5 -13z"/>
<path d="M6082 6680 c0 -14 2 -19 5 -12 2 6 2 18 0 25 -3 6 -5 1 -5 -13z"/>
<path d="M5985 6669 c-4 -6 -5 -12 -2 -15 2 -3 7 2 10 11 7 17 1 20 -8 4z"/>
<path d="M5990 6525 c0 -9 -13 -43 -29 -75 -18 -35 -24 -57 -16 -54 7 3 16 17
20 32 4 15 11 29 16 33 15 9 29 68 18 74 -5 4 -9 -1 -9 -10z"/>
<path d="M5831 6164 c0 -11 3 -14 6 -6 3 7 2 16 -1 19 -3 4 -6 -2 -5 -13z"/>
<path d="M5780 6111 c0 -12 5 -21 10 -21 6 0 10 6 10 14 0 8 -4 18 -10 21 -5
3 -10 -3 -10 -14z"/>
<path d="M4645 6040 c-5 -8 62 -7 69 1 3 2 -11 5 -30 5 -20 0 -37 -3 -39 -6z"/>
<path d="M5815 6036 c-21 -25 -16 -36 10 -24 14 6 25 15 25 19 0 13 -25 17
-35 5z"/>
<path d="M5890 6011 c0 -6 4 -13 10 -16 6 -3 7 1 4 9 -7 18 -14 21 -14 7z"/>
<path d="M4498 6003 c12 -2 32 -2 45 0 12 2 2 4 -23 4 -25 0 -35 -2 -22 -4z"/>
<path d="M4320 5815 c0 -8 7 -15 15 -15 8 0 15 4 15 9 0 5 -7 11 -15 15 -9 3
-15 0 -15 -9z"/>
<path d="M5871 5808 c-1 -23 9 -48 21 -48 7 0 7 4 0 13 -5 6 -12 21 -15 32 -3
15 -5 16 -6 3z"/>
<path d="M4306 5760 c-14 -64 -48 -185 -57 -202 -5 -10 -9 -28 -9 -40 0 -49
-2 -49 -248 -46 -128 2 -232 0 -232 -4 0 -5 13 -8 29 -8 16 0 32 -6 34 -12 4
-10 6 -10 6 0 1 6 11 12 24 11 21 0 21 -1 2 -9 -12 -5 43 -9 143 -9 106 -1
161 2 157 9 -3 6 1 10 10 10 9 0 13 -4 10 -10 -3 -5 1 -10 10 -10 9 0 13 5 10
10 -3 6 -1 10 4 10 6 0 11 -4 11 -10 0 -5 8 -10 18 -10 14 0 15 2 2 10 -8 5
-10 10 -4 10 13 0 28 45 25 75 -2 19 -1 19 13 2 12 -16 14 -16 20 -1 3 8 7 25
7 37 1 17 3 16 10 -8 7 -25 7 -22 4 15 -2 25 -7 59 -10 75 -4 25 -4 27 5 10 9
-17 10 -15 6 10 -3 17 -3 24 0 18 7 -17 24 -16 62 3 39 19 40 31 6 44 -14 6
-22 14 -19 20 3 5 -3 10 -14 10 -10 0 -21 6 -24 13 -2 6 -7 -4 -11 -23z m-29
-192 c-3 -8 -6 -5 -6 6 -1 11 2 17 5 13 3 -3 4 -12 1 -19z"/>
<path d="M5935 5670 c3 -5 8 -10 11 -10 2 0 4 5 4 10 0 6 -5 10 -11 10 -5 0
-7 -4 -4 -10z"/>
<path d="M7238 5613 c6 -2 18 -2 25 0 6 3 1 5 -13 5 -14 0 -19 -2 -12 -5z"/>
<path d="M5883 5603 c-43 -4 -43 -4 -43 -44 0 -38 1 -39 34 -39 46 0 66 9 66
29 0 14 -2 14 -10 1 -8 -13 -10 -12 -10 3 0 9 5 17 11 17 8 0 8 4 0 14 -9 11
-9 15 1 19 7 3 9 5 3 4 -5 0 -29 -2 -52 -4z"/>
<path d="M3686 5543 c-11 -11 -6 -23 9 -23 8 0 15 4 15 9 0 13 -16 22 -24 14z"/>
<path d="M7046 5464 c-9 -23 -8 -24 14 -24 24 0 25 6 6 25 -12 12 -15 12 -20
-1z"/>
<path d="M6216 5455 c-3 -9 0 -15 9 -15 8 0 15 7 15 15 0 8 -4 15 -9 15 -5 0
-11 -7 -15 -15z"/>
<path d="M5880 5441 c-32 -3 -33 -4 -10 -10 16 -4 26 -15 28 -29 5 -31 19 -28
25 6 7 34 1 38 -43 33z"/>
<path d="M5760 5425 c0 -8 5 -15 10 -15 6 0 10 7 10 15 0 8 -4 15 -10 15 -5 0
-10 -7 -10 -15z"/>
<path d="M7423 5360 c0 -41 2 -58 4 -37 2 20 2 54 0 75 -2 20 -4 3 -4 -38z"/>
<path d="M5830 5321 c0 -5 5 -13 10 -16 6 -3 10 -2 10 4 0 5 -4 13 -10 16 -5
3 -10 2 -10 -4z"/>
<path d="M5753 5298 c2 -7 9 -13 15 -13 16 0 23 -10 32 -49 5 -24 4 -37 -4
-40 -8 -3 -8 -5 1 -5 15 -1 20 7 28 52 6 30 4 37 -9 37 -9 0 -16 7 -16 15 0 9
-10 15 -26 15 -16 0 -24 -5 -21 -12z"/>
<path d="M6280 5272 c-42 -5 -40 -6 40 -17 l85 -12 -85 -3 c-47 -1 -97 -1
-112 0 -22 1 -28 -3 -28 -19 0 -26 43 -39 65 -21 19 15 212 7 229 -10 13 -13
29 -13 21 0 -4 6 8 10 29 10 20 0 36 5 36 10 0 6 18 10 41 10 26 0 38 4 34 11
-4 6 -19 7 -36 4 -17 -4 -35 -3 -42 3 -7 5 -25 8 -40 7 -15 -1 -30 2 -33 7 -3
4 -23 8 -45 8 -21 0 -39 5 -39 10 0 10 -38 11 -120 2z"/>
<path d="M6573 5273 c9 -2 23 -2 30 0 6 3 -1 5 -18 5 -16 0 -22 -2 -12 -5z"/>
<path d="M5995 5189 c-4 -6 -5 -12 -2 -15 2 -3 7 2 10 11 7 17 1 20 -8 4z"/>
<path d="M6168 5183 c7 -3 16 -2 19 1 4 3 -2 6 -13 5 -11 0 -14 -3 -6 -6z"/>
<path d="M6620 5180 c-13 -8 -12 -10 3 -10 9 0 17 5 17 10 0 12 -1 12 -20 0z"/>
<path d="M6680 5171 c0 -6 5 -13 10 -16 6 -3 10 1 10 9 0 9 -4 16 -10 16 -5 0
-10 -4 -10 -9z"/>
<path d="M5767 5146 c-4 -10 -5 -21 -2 -24 9 -9 17 6 13 25 -3 17 -4 17 -11
-1z"/>
<path d="M7098 5109 c-8 -6 1 -9 25 -9 20 0 37 2 37 4 0 9 -50 12 -62 5z"/>
<path d="M7258 5113 c7 -3 16 -2 19 1 4 3 -2 6 -13 5 -11 0 -14 -3 -6 -6z"/>
<path d="M7368 5033 c7 -3 16 -2 19 1 4 3 -2 6 -13 5 -11 0 -14 -3 -6 -6z"/>
<path d="M6088 5013 c6 -2 18 -2 25 0 6 3 1 5 -13 5 -14 0 -19 -2 -12 -5z"/>
<path d="M6793 4983 c9 -2 23 -2 30 0 6 3 -1 5 -18 5 -16 0 -22 -2 -12 -5z"/>
<path d="M6888 4973 c7 -3 16 -2 19 1 4 3 -2 6 -13 5 -11 0 -14 -3 -6 -6z"/>
<path d="M6273 4933 c9 -2 25 -2 35 0 9 3 1 5 -18 5 -19 0 -27 -2 -17 -5z"/>
<path d="M7200 4930 c0 -5 5 -10 10 -10 6 0 10 5 10 10 0 6 -4 10 -10 10 -5 0
-10 -4 -10 -10z"/>
<path d="M6560 4880 c0 -5 18 -10 40 -10 22 0 40 5 40 10 0 6 -18 10 -40 10
-22 0 -40 -4 -40 -10z"/>
<path d="M6391 4871 c-9 -6 -10 -11 -2 -15 6 -4 11 -2 11 5 0 8 5 7 17 -2 9
-8 14 -9 10 -2 -4 7 0 13 10 16 12 3 10 5 -7 6 -14 0 -31 -3 -39 -8z"/>
<path d="M6918 4833 c6 -2 18 -2 25 0 6 3 1 5 -13 5 -14 0 -19 -2 -12 -5z"/>
<path d="M6578 4823 c12 -2 32 -2 45 0 12 2 2 4 -23 4 -25 0 -35 -2 -22 -4z"/>
<path d="M5868 4286 c-137 -37 -226 -150 -237 -301 l-6 -80 -67 -3 -68 -3 0
-34 0 -35 64 0 65 0 6 -42 c4 -24 5 -147 3 -275 -3 -257 -4 -259 -69 -272 -26
-5 -33 -12 -36 -34 l-4 -27 186 0 185 0 0 25 c0 19 -7 26 -27 31 -62 13 -79
22 -90 45 -10 18 -12 92 -10 284 l2 260 118 3 c112 3 118 2 141 -21 32 -33 40
-111 34 -344 -6 -203 -12 -223 -70 -223 -24 0 -28 -4 -28 -30 l0 -30 171 0
170 0 -3 27 c-2 20 -10 29 -28 33 -45 9 -62 26 -71 71 -4 24 -8 169 -9 323 l0
279 -47 -7 c-81 -11 -329 -19 -358 -12 l-28 7 6 96 c9 130 36 191 101 222 36
18 55 21 88 16 68 -11 78 -20 78 -69 0 -59 31 -88 90 -84 54 4 84 39 82 95 -3
80 -74 122 -207 122 -44 0 -101 -6 -127 -13z"/>
<path d="M6810 4290 c-63 -4 -118 -8 -122 -9 -5 0 -8 -12 -8 -25 0 -20 6 -24
48 -30 26 -3 61 -15 78 -25 29 -18 31 -23 37 -96 4 -43 7 -112 7 -153 0 -73
-1 -74 -22 -67 -101 31 -127 36 -183 30 -188 -20 -305 -168 -305 -386 0 -190
112 -340 273 -363 66 -10 147 15 197 61 l40 35 0 -42 0 -43 83 6 c45 4 104 7
130 7 47 0 48 1 45 27 -2 23 -9 28 -43 35 -79 16 -75 -10 -75 533 0 266 -3
490 -6 499 -4 10 -16 15 -33 14 -14 -1 -78 -5 -141 -8z m-61 -444 c47 -25 89
-81 96 -128 4 -24 5 -123 3 -221 l-3 -178 -35 -29 c-48 -39 -95 -51 -149 -39
-81 18 -132 78 -157 186 -38 161 12 344 110 404 37 23 96 25 135 5z"/>
<path d="M3408 4215 c-150 -37 -261 -147 -325 -323 -50 -136 -39 -341 25 -471
33 -68 139 -177 208 -213 108 -58 275 -61 389 -7 68 32 150 116 180 184 30 66
30 71 8 79 -10 3 -23 8 -29 11 -5 3 -20 -16 -32 -42 -29 -65 -75 -118 -129
-150 -36 -21 -63 -27 -123 -31 -68 -4 -85 -1 -133 21 -152 69 -242 269 -222
492 20 228 110 366 258 397 66 14 145 -7 199 -52 41 -34 98 -140 119 -219 12
-46 15 -51 41 -51 l28 0 -2 183 -3 182 -32 3 c-24 2 -33 -1 -38 -17 -3 -12 -9
-21 -13 -21 -4 0 -45 14 -92 30 -96 34 -184 38 -282 15z"/>
<path d="M1170 4180 c0 -23 4 -30 20 -30 27 0 92 -27 102 -43 4 -7 8 -195 8
-419 l0 -408 -25 -16 c-13 -9 -42 -18 -65 -21 -36 -5 -40 -8 -40 -34 l0 -29
395 0 395 0 0 88 c0 48 3 117 7 155 l6 67 -26 0 c-24 0 -32 -10 -68 -85 -25
-50 -57 -99 -79 -118 -32 -30 -46 -35 -109 -41 -40 -4 -101 -4 -136 -1 -107
12 -100 -18 -100 451 0 393 1 404 20 424 12 11 41 24 65 28 39 6 45 11 48 35
l3 27 -210 0 -211 0 0 -30z"/>
<path d="M8700 4010 l0 -110 -60 0 -60 0 0 -35 0 -34 58 -3 57 -3 5 -276 5
-276 28 -40 c15 -22 39 -45 53 -52 41 -18 156 -14 219 10 49 18 55 24 55 48
l0 28 -73 -5 c-140 -9 -147 7 -147 321 0 205 2 236 16 241 9 3 56 6 105 6 93
0 95 1 83 48 -6 21 -11 22 -105 22 l-99 0 0 110 0 110 -70 0 -70 0 0 -110z"/>
<path d="M2250 3907 c-144 -41 -227 -161 -237 -343 -15 -261 156 -432 395
-393 74 11 129 44 191 115 47 54 50 66 19 86 -21 14 -24 13 -49 -22 -50 -69
-93 -94 -169 -98 -76 -5 -107 7 -159 60 -44 44 -71 108 -78 185 l-6 63 237 0
236 0 0 54 c0 124 -58 229 -154 278 -49 25 -164 33 -226 15z m160 -73 c37 -32
58 -79 66 -150 l7 -54 -163 0 -163 0 6 50 c17 142 157 229 247 154z"/>
<path d="M4198 3906 c-272 -79 -337 -501 -104 -673 179 -132 410 -75 508 125
32 64 33 72 33 187 0 116 -1 123 -33 187 -38 78 -98 135 -168 161 -64 24 -176
30 -236 13z m177 -67 c97 -57 143 -263 96 -432 -24 -86 -61 -141 -113 -168
-82 -42 -165 -4 -214 98 -24 50 -28 73 -32 173 -5 136 13 225 57 280 54 69
138 89 206 49z"/>
<path d="M5079 3905 c-26 -8 -69 -35 -97 -60 l-51 -46 -3 53 -3 53 -40 -2
c-22 -1 -75 -4 -117 -8 -73 -6 -78 -8 -78 -30 0 -18 7 -25 30 -30 17 -4 40
-16 50 -28 19 -19 20 -37 20 -277 0 -236 -1 -258 -18 -273 -10 -10 -33 -17
-50 -17 -29 0 -32 -3 -32 -30 l0 -30 175 0 175 0 0 30 c0 26 -3 30 -29 30 -16
0 -39 9 -52 19 -24 19 -24 22 -27 239 l-3 220 33 38 c33 38 97 73 132 74 11 0
39 -9 62 -20 69 -34 74 -53 74 -307 0 -248 -4 -263 -66 -263 -31 0 -34 -2 -34
-30 l0 -30 170 0 170 0 0 30 c0 26 -4 30 -28 30 -17 0 -37 10 -50 23 -21 22
-22 31 -22 248 0 123 -5 240 -10 260 -14 50 -49 99 -86 121 -43 25 -138 31
-195 13z"/>
<path d="M7369 3907 c-149 -42 -248 -205 -237 -390 9 -142 70 -252 173 -313
60 -35 162 -50 234 -34 73 15 155 71 199 135 31 46 32 50 16 62 -27 20 -41 16
-60 -17 -29 -47 -100 -93 -155 -98 -76 -7 -113 5 -167 53 -39 35 -53 57 -70
110 -12 36 -22 83 -22 105 l0 40 235 0 235 0 0 58 c0 176 -102 289 -268 298
-37 2 -87 -2 -113 -9z m143 -58 c47 -21 88 -106 88 -181 l0 -38 -160 0 -160 0
0 29 c0 130 130 237 232 190z"/>
<path d="M8198 3906 c-51 -14 -63 -22 -120 -75 l-38 -35 0 51 c0 32 -5 53 -12
55 -10 4 -203 -6 -225 -11 -2 -1 -3 -12 -3 -25 0 -18 7 -25 29 -29 16 -4 39
-16 50 -28 20 -22 21 -33 21 -279 0 -236 -1 -258 -18 -273 -10 -10 -33 -17
-50 -17 -29 0 -32 -3 -32 -30 l0 -30 176 0 175 0 -3 28 c-2 22 -9 28 -33 30
-16 2 -40 13 -52 25 -22 20 -23 25 -23 234 0 243 3 256 73 297 88 52 169 39
212 -34 18 -32 20 -55 23 -256 l3 -221 -27 -22 c-15 -11 -40 -21 -55 -21 -26
0 -29 -4 -29 -30 l0 -30 176 0 175 0 -3 28 c-2 22 -8 28 -34 30 -60 6 -62 12
-66 282 -3 229 -5 248 -25 286 -52 98 -144 133 -265 100z"/>
</g>
</svg>
